<mxfile host="app.diagrams.net" modified="2024-05-28T04:13:21.335Z" agent="Mozilla/5.0 (Windows NT 10.0; Win64; x64) AppleWebKit/537.36 (KHTML, like Gecko) Chrome/124.0.0.0 Safari/537.36" etag="MgBTR0yZtzePX1L4KVq8" version="24.4.8" type="github">
  <diagram id="C5RBs43oDa-KdzZeNtuy" name="Page-1">
    <mxGraphModel dx="1434" dy="746" grid="1" gridSize="10" guides="1" tooltips="1" connect="1" arrows="1" fold="1" page="1" pageScale="1" pageWidth="827" pageHeight="1169" math="0" shadow="0">
      <root>
        <mxCell id="WIyWlLk6GJQsqaUBKTNV-0" />
        <mxCell id="WIyWlLk6GJQsqaUBKTNV-1" parent="WIyWlLk6GJQsqaUBKTNV-0" />
        <mxCell id="GNfECRyxl7Dd__0p0tdH-6" style="edgeStyle=orthogonalEdgeStyle;rounded=0;orthogonalLoop=1;jettySize=auto;html=1;exitX=0.5;exitY=1;exitDx=0;exitDy=0;entryX=0.5;entryY=0;entryDx=0;entryDy=0;" edge="1" parent="WIyWlLk6GJQsqaUBKTNV-1" source="GNfECRyxl7Dd__0p0tdH-0" target="GNfECRyxl7Dd__0p0tdH-1">
          <mxGeometry relative="1" as="geometry" />
        </mxCell>
        <mxCell id="GNfECRyxl7Dd__0p0tdH-0" value="아파트 매매 실거래가 아파트명 중복 제거 select" style="rounded=1;whiteSpace=wrap;html=1;" vertex="1" parent="WIyWlLk6GJQsqaUBKTNV-1">
          <mxGeometry x="140" y="70" width="120" height="60" as="geometry" />
        </mxCell>
        <mxCell id="GNfECRyxl7Dd__0p0tdH-7" style="edgeStyle=orthogonalEdgeStyle;rounded=0;orthogonalLoop=1;jettySize=auto;html=1;exitX=0.5;exitY=1;exitDx=0;exitDy=0;entryX=0.5;entryY=0;entryDx=0;entryDy=0;" edge="1" parent="WIyWlLk6GJQsqaUBKTNV-1" source="GNfECRyxl7Dd__0p0tdH-1" target="GNfECRyxl7Dd__0p0tdH-2">
          <mxGeometry relative="1" as="geometry" />
        </mxCell>
        <mxCell id="GNfECRyxl7Dd__0p0tdH-1" value="row별 순회" style="rounded=1;whiteSpace=wrap;html=1;" vertex="1" parent="WIyWlLk6GJQsqaUBKTNV-1">
          <mxGeometry x="140" y="160" width="120" height="60" as="geometry" />
        </mxCell>
        <mxCell id="GNfECRyxl7Dd__0p0tdH-8" style="edgeStyle=orthogonalEdgeStyle;rounded=0;orthogonalLoop=1;jettySize=auto;html=1;exitX=0.5;exitY=1;exitDx=0;exitDy=0;entryX=0.5;entryY=0;entryDx=0;entryDy=0;" edge="1" parent="WIyWlLk6GJQsqaUBKTNV-1" source="GNfECRyxl7Dd__0p0tdH-2" target="GNfECRyxl7Dd__0p0tdH-3">
          <mxGeometry relative="1" as="geometry" />
        </mxCell>
        <mxCell id="GNfECRyxl7Dd__0p0tdH-2" value="아파트 주소로 카카오 api&amp;nbsp; 요청" style="rounded=1;whiteSpace=wrap;html=1;" vertex="1" parent="WIyWlLk6GJQsqaUBKTNV-1">
          <mxGeometry x="140" y="250" width="120" height="60" as="geometry" />
        </mxCell>
        <mxCell id="GNfECRyxl7Dd__0p0tdH-9" style="edgeStyle=orthogonalEdgeStyle;rounded=0;orthogonalLoop=1;jettySize=auto;html=1;exitX=0.5;exitY=1;exitDx=0;exitDy=0;" edge="1" parent="WIyWlLk6GJQsqaUBKTNV-1" source="GNfECRyxl7Dd__0p0tdH-3" target="GNfECRyxl7Dd__0p0tdH-5">
          <mxGeometry relative="1" as="geometry" />
        </mxCell>
        <mxCell id="GNfECRyxl7Dd__0p0tdH-3" value="요청 받은 json 에서 x, y 값 으로 주변 지하철 다시 요청" style="rounded=1;whiteSpace=wrap;html=1;" vertex="1" parent="WIyWlLk6GJQsqaUBKTNV-1">
          <mxGeometry x="140" y="340" width="120" height="60" as="geometry" />
        </mxCell>
        <mxCell id="GNfECRyxl7Dd__0p0tdH-11" style="edgeStyle=orthogonalEdgeStyle;rounded=0;orthogonalLoop=1;jettySize=auto;html=1;exitX=0.5;exitY=0;exitDx=0;exitDy=0;entryX=0.5;entryY=0;entryDx=0;entryDy=0;" edge="1" parent="WIyWlLk6GJQsqaUBKTNV-1" source="GNfECRyxl7Dd__0p0tdH-4" target="GNfECRyxl7Dd__0p0tdH-5">
          <mxGeometry relative="1" as="geometry" />
        </mxCell>
        <mxCell id="GNfECRyxl7Dd__0p0tdH-4" value="많으면 가장 가까운 거리 보다 가깝게 다시 요청" style="rounded=1;whiteSpace=wrap;html=1;" vertex="1" parent="WIyWlLk6GJQsqaUBKTNV-1">
          <mxGeometry y="440" width="120" height="60" as="geometry" />
        </mxCell>
        <mxCell id="GNfECRyxl7Dd__0p0tdH-12" style="edgeStyle=orthogonalEdgeStyle;rounded=0;orthogonalLoop=1;jettySize=auto;html=1;exitX=0;exitY=0.5;exitDx=0;exitDy=0;entryX=1;entryY=0.5;entryDx=0;entryDy=0;" edge="1" parent="WIyWlLk6GJQsqaUBKTNV-1" source="GNfECRyxl7Dd__0p0tdH-5" target="GNfECRyxl7Dd__0p0tdH-4">
          <mxGeometry relative="1" as="geometry" />
        </mxCell>
        <mxCell id="GNfECRyxl7Dd__0p0tdH-23" style="edgeStyle=orthogonalEdgeStyle;rounded=0;orthogonalLoop=1;jettySize=auto;html=1;exitX=0.5;exitY=1;exitDx=0;exitDy=0;entryX=0.5;entryY=0;entryDx=0;entryDy=0;" edge="1" parent="WIyWlLk6GJQsqaUBKTNV-1" source="GNfECRyxl7Dd__0p0tdH-5" target="GNfECRyxl7Dd__0p0tdH-18">
          <mxGeometry relative="1" as="geometry" />
        </mxCell>
        <mxCell id="GNfECRyxl7Dd__0p0tdH-5" value="json data 순회 하면서 가장 가까운 지하철역 찾기" style="rhombus;whiteSpace=wrap;html=1;" vertex="1" parent="WIyWlLk6GJQsqaUBKTNV-1">
          <mxGeometry x="140" y="430" width="120" height="80" as="geometry" />
        </mxCell>
        <mxCell id="GNfECRyxl7Dd__0p0tdH-17" style="edgeStyle=orthogonalEdgeStyle;rounded=0;orthogonalLoop=1;jettySize=auto;html=1;exitX=0.5;exitY=1;exitDx=0;exitDy=0;" edge="1" parent="WIyWlLk6GJQsqaUBKTNV-1" source="GNfECRyxl7Dd__0p0tdH-18" target="GNfECRyxl7Dd__0p0tdH-22">
          <mxGeometry relative="1" as="geometry" />
        </mxCell>
        <mxCell id="GNfECRyxl7Dd__0p0tdH-18" value="요청 받은 json 에서 x, y 값 으로 주변 시군청 다시 요청" style="rounded=1;whiteSpace=wrap;html=1;" vertex="1" parent="WIyWlLk6GJQsqaUBKTNV-1">
          <mxGeometry x="140" y="540" width="120" height="60" as="geometry" />
        </mxCell>
        <mxCell id="GNfECRyxl7Dd__0p0tdH-19" style="edgeStyle=orthogonalEdgeStyle;rounded=0;orthogonalLoop=1;jettySize=auto;html=1;exitX=0.5;exitY=0;exitDx=0;exitDy=0;entryX=0.5;entryY=0;entryDx=0;entryDy=0;" edge="1" parent="WIyWlLk6GJQsqaUBKTNV-1" source="GNfECRyxl7Dd__0p0tdH-20" target="GNfECRyxl7Dd__0p0tdH-22">
          <mxGeometry relative="1" as="geometry" />
        </mxCell>
        <mxCell id="GNfECRyxl7Dd__0p0tdH-20" value="많으면 가장 가까운 거리 보다 가깝게 다시 요청" style="rounded=1;whiteSpace=wrap;html=1;" vertex="1" parent="WIyWlLk6GJQsqaUBKTNV-1">
          <mxGeometry y="640" width="120" height="60" as="geometry" />
        </mxCell>
        <mxCell id="GNfECRyxl7Dd__0p0tdH-21" style="edgeStyle=orthogonalEdgeStyle;rounded=0;orthogonalLoop=1;jettySize=auto;html=1;exitX=0;exitY=0.5;exitDx=0;exitDy=0;entryX=1;entryY=0.5;entryDx=0;entryDy=0;" edge="1" parent="WIyWlLk6GJQsqaUBKTNV-1" source="GNfECRyxl7Dd__0p0tdH-22" target="GNfECRyxl7Dd__0p0tdH-20">
          <mxGeometry relative="1" as="geometry" />
        </mxCell>
        <mxCell id="GNfECRyxl7Dd__0p0tdH-22" value="json data 순회 하면서 가장 가까운 시군청&amp;nbsp;찾기" style="rhombus;whiteSpace=wrap;html=1;" vertex="1" parent="WIyWlLk6GJQsqaUBKTNV-1">
          <mxGeometry x="140" y="630" width="120" height="80" as="geometry" />
        </mxCell>
        <mxCell id="GNfECRyxl7Dd__0p0tdH-24" value="아파트 교통정보" style="text;html=1;align=center;verticalAlign=middle;resizable=0;points=[];autosize=1;strokeColor=none;fillColor=none;" vertex="1" parent="WIyWlLk6GJQsqaUBKTNV-1">
          <mxGeometry x="30" y="70" width="110" height="30" as="geometry" />
        </mxCell>
        <mxCell id="GNfECRyxl7Dd__0p0tdH-25" style="edgeStyle=orthogonalEdgeStyle;rounded=0;orthogonalLoop=1;jettySize=auto;html=1;exitX=0.5;exitY=1;exitDx=0;exitDy=0;entryX=0.5;entryY=0;entryDx=0;entryDy=0;" edge="1" source="GNfECRyxl7Dd__0p0tdH-26" target="GNfECRyxl7Dd__0p0tdH-28" parent="WIyWlLk6GJQsqaUBKTNV-1">
          <mxGeometry relative="1" as="geometry" />
        </mxCell>
        <mxCell id="GNfECRyxl7Dd__0p0tdH-26" value="KB아파트 기본정보, 단지정보 select" style="rounded=1;whiteSpace=wrap;html=1;" vertex="1" parent="WIyWlLk6GJQsqaUBKTNV-1">
          <mxGeometry x="600" y="70" width="120" height="60" as="geometry" />
        </mxCell>
        <mxCell id="GNfECRyxl7Dd__0p0tdH-27" style="edgeStyle=orthogonalEdgeStyle;rounded=0;orthogonalLoop=1;jettySize=auto;html=1;exitX=0.5;exitY=1;exitDx=0;exitDy=0;entryX=0.5;entryY=0;entryDx=0;entryDy=0;" edge="1" source="GNfECRyxl7Dd__0p0tdH-28" target="GNfECRyxl7Dd__0p0tdH-30" parent="WIyWlLk6GJQsqaUBKTNV-1">
          <mxGeometry relative="1" as="geometry" />
        </mxCell>
        <mxCell id="GNfECRyxl7Dd__0p0tdH-28" value="row별 순회" style="rounded=1;whiteSpace=wrap;html=1;" vertex="1" parent="WIyWlLk6GJQsqaUBKTNV-1">
          <mxGeometry x="600" y="160" width="120" height="60" as="geometry" />
        </mxCell>
        <mxCell id="GNfECRyxl7Dd__0p0tdH-29" style="edgeStyle=orthogonalEdgeStyle;rounded=0;orthogonalLoop=1;jettySize=auto;html=1;exitX=0.5;exitY=1;exitDx=0;exitDy=0;entryX=0.5;entryY=0;entryDx=0;entryDy=0;" edge="1" source="GNfECRyxl7Dd__0p0tdH-30" target="GNfECRyxl7Dd__0p0tdH-32" parent="WIyWlLk6GJQsqaUBKTNV-1">
          <mxGeometry relative="1" as="geometry" />
        </mxCell>
        <mxCell id="GNfECRyxl7Dd__0p0tdH-30" value="주소 번지 변환" style="rounded=1;whiteSpace=wrap;html=1;" vertex="1" parent="WIyWlLk6GJQsqaUBKTNV-1">
          <mxGeometry x="600" y="250" width="120" height="60" as="geometry" />
        </mxCell>
        <mxCell id="GNfECRyxl7Dd__0p0tdH-31" style="edgeStyle=orthogonalEdgeStyle;rounded=0;orthogonalLoop=1;jettySize=auto;html=1;exitX=0;exitY=0.5;exitDx=0;exitDy=0;entryX=0.5;entryY=0;entryDx=0;entryDy=0;" edge="1" source="GNfECRyxl7Dd__0p0tdH-32" target="GNfECRyxl7Dd__0p0tdH-28" parent="WIyWlLk6GJQsqaUBKTNV-1">
          <mxGeometry relative="1" as="geometry">
            <mxPoint x="660" y="430" as="targetPoint" />
            <Array as="points">
              <mxPoint x="550" y="370" />
              <mxPoint x="550" y="140" />
              <mxPoint x="660" y="140" />
            </Array>
          </mxGeometry>
        </mxCell>
        <mxCell id="GNfECRyxl7Dd__0p0tdH-46" style="edgeStyle=orthogonalEdgeStyle;rounded=0;orthogonalLoop=1;jettySize=auto;html=1;exitX=0.5;exitY=1;exitDx=0;exitDy=0;entryX=0.5;entryY=0;entryDx=0;entryDy=0;" edge="1" parent="WIyWlLk6GJQsqaUBKTNV-1" source="GNfECRyxl7Dd__0p0tdH-32" target="GNfECRyxl7Dd__0p0tdH-45">
          <mxGeometry relative="1" as="geometry" />
        </mxCell>
        <mxCell id="GNfECRyxl7Dd__0p0tdH-32" value="주소 번지 아파트 세대정보, 주차 정보 리스트저장" style="rounded=1;whiteSpace=wrap;html=1;" vertex="1" parent="WIyWlLk6GJQsqaUBKTNV-1">
          <mxGeometry x="600" y="340" width="120" height="60" as="geometry" />
        </mxCell>
        <mxCell id="GNfECRyxl7Dd__0p0tdH-33" style="edgeStyle=orthogonalEdgeStyle;rounded=0;orthogonalLoop=1;jettySize=auto;html=1;exitX=0.5;exitY=0;exitDx=0;exitDy=0;entryX=0.5;entryY=0;entryDx=0;entryDy=0;" edge="1" target="GNfECRyxl7Dd__0p0tdH-37" parent="WIyWlLk6GJQsqaUBKTNV-1">
          <mxGeometry relative="1" as="geometry">
            <mxPoint x="520" y="440" as="sourcePoint" />
          </mxGeometry>
        </mxCell>
        <mxCell id="GNfECRyxl7Dd__0p0tdH-44" value="아파트 세대 주차 정보" style="text;html=1;align=center;verticalAlign=middle;resizable=0;points=[];autosize=1;strokeColor=none;fillColor=none;" vertex="1" parent="WIyWlLk6GJQsqaUBKTNV-1">
          <mxGeometry x="490" y="40" width="140" height="30" as="geometry" />
        </mxCell>
        <mxCell id="GNfECRyxl7Dd__0p0tdH-45" value="순회 완료: db insert" style="rounded=1;whiteSpace=wrap;html=1;" vertex="1" parent="WIyWlLk6GJQsqaUBKTNV-1">
          <mxGeometry x="600" y="430" width="120" height="60" as="geometry" />
        </mxCell>
        <mxCell id="GNfECRyxl7Dd__0p0tdH-53" style="edgeStyle=orthogonalEdgeStyle;rounded=0;orthogonalLoop=1;jettySize=auto;html=1;exitX=0.5;exitY=1;exitDx=0;exitDy=0;entryX=0.5;entryY=0;entryDx=0;entryDy=0;" edge="1" parent="WIyWlLk6GJQsqaUBKTNV-1" source="GNfECRyxl7Dd__0p0tdH-47" target="GNfECRyxl7Dd__0p0tdH-48">
          <mxGeometry relative="1" as="geometry" />
        </mxCell>
        <mxCell id="GNfECRyxl7Dd__0p0tdH-47" value="아파트 교통 정보 전체 select" style="rounded=1;whiteSpace=wrap;html=1;" vertex="1" parent="WIyWlLk6GJQsqaUBKTNV-1">
          <mxGeometry x="310" y="790" width="180" height="60" as="geometry" />
        </mxCell>
        <mxCell id="GNfECRyxl7Dd__0p0tdH-54" style="edgeStyle=orthogonalEdgeStyle;rounded=0;orthogonalLoop=1;jettySize=auto;html=1;exitX=0.5;exitY=1;exitDx=0;exitDy=0;" edge="1" parent="WIyWlLk6GJQsqaUBKTNV-1" source="GNfECRyxl7Dd__0p0tdH-48" target="GNfECRyxl7Dd__0p0tdH-49">
          <mxGeometry relative="1" as="geometry" />
        </mxCell>
        <mxCell id="GNfECRyxl7Dd__0p0tdH-48" value="초등학교, 중학교, 고등학교 학구군 파일 geo데이터프레임 변환&lt;div&gt;학구도 연계정보 데이터프레임&amp;nbsp;&lt;/div&gt;" style="rounded=1;whiteSpace=wrap;html=1;" vertex="1" parent="WIyWlLk6GJQsqaUBKTNV-1">
          <mxGeometry x="310" y="880" width="180" height="60" as="geometry" />
        </mxCell>
        <mxCell id="GNfECRyxl7Dd__0p0tdH-55" style="edgeStyle=orthogonalEdgeStyle;rounded=0;orthogonalLoop=1;jettySize=auto;html=1;exitX=0.5;exitY=1;exitDx=0;exitDy=0;" edge="1" parent="WIyWlLk6GJQsqaUBKTNV-1" source="GNfECRyxl7Dd__0p0tdH-49" target="GNfECRyxl7Dd__0p0tdH-50">
          <mxGeometry relative="1" as="geometry" />
        </mxCell>
        <mxCell id="GNfECRyxl7Dd__0p0tdH-49" value="아파트 x,y 값으로 초,중,고등학교 학구도 코드 추출 &amp;gt; 그 학구도에 포함 되는 학교 추출" style="rounded=1;whiteSpace=wrap;html=1;" vertex="1" parent="WIyWlLk6GJQsqaUBKTNV-1">
          <mxGeometry x="310" y="970" width="180" height="60" as="geometry" />
        </mxCell>
        <mxCell id="GNfECRyxl7Dd__0p0tdH-56" style="edgeStyle=orthogonalEdgeStyle;rounded=0;orthogonalLoop=1;jettySize=auto;html=1;exitX=0.5;exitY=1;exitDx=0;exitDy=0;" edge="1" parent="WIyWlLk6GJQsqaUBKTNV-1" source="GNfECRyxl7Dd__0p0tdH-50" target="GNfECRyxl7Dd__0p0tdH-51">
          <mxGeometry relative="1" as="geometry" />
        </mxCell>
        <mxCell id="GNfECRyxl7Dd__0p0tdH-50" value="카카오 api로 아파트에서 초,중,고 검색&amp;nbsp;" style="rounded=1;whiteSpace=wrap;html=1;" vertex="1" parent="WIyWlLk6GJQsqaUBKTNV-1">
          <mxGeometry x="310" y="1060" width="180" height="60" as="geometry" />
        </mxCell>
        <mxCell id="GNfECRyxl7Dd__0p0tdH-57" style="edgeStyle=orthogonalEdgeStyle;rounded=0;orthogonalLoop=1;jettySize=auto;html=1;exitX=0;exitY=0.5;exitDx=0;exitDy=0;entryX=1;entryY=0.5;entryDx=0;entryDy=0;" edge="1" parent="WIyWlLk6GJQsqaUBKTNV-1" source="GNfECRyxl7Dd__0p0tdH-51" target="GNfECRyxl7Dd__0p0tdH-52">
          <mxGeometry relative="1" as="geometry" />
        </mxCell>
        <mxCell id="GNfECRyxl7Dd__0p0tdH-60" style="edgeStyle=orthogonalEdgeStyle;rounded=0;orthogonalLoop=1;jettySize=auto;html=1;entryX=0.5;entryY=0;entryDx=0;entryDy=0;" edge="1" parent="WIyWlLk6GJQsqaUBKTNV-1" source="GNfECRyxl7Dd__0p0tdH-51" target="GNfECRyxl7Dd__0p0tdH-59">
          <mxGeometry relative="1" as="geometry" />
        </mxCell>
        <mxCell id="GNfECRyxl7Dd__0p0tdH-51" value="json data 순회 하면서 가장 가까운 지하철역 찾기" style="rhombus;whiteSpace=wrap;html=1;" vertex="1" parent="WIyWlLk6GJQsqaUBKTNV-1">
          <mxGeometry x="340" y="1160" width="120" height="80" as="geometry" />
        </mxCell>
        <mxCell id="GNfECRyxl7Dd__0p0tdH-58" style="edgeStyle=orthogonalEdgeStyle;rounded=0;orthogonalLoop=1;jettySize=auto;html=1;exitX=0.5;exitY=0;exitDx=0;exitDy=0;entryX=0.5;entryY=0;entryDx=0;entryDy=0;" edge="1" parent="WIyWlLk6GJQsqaUBKTNV-1" source="GNfECRyxl7Dd__0p0tdH-52" target="GNfECRyxl7Dd__0p0tdH-50">
          <mxGeometry relative="1" as="geometry" />
        </mxCell>
        <mxCell id="GNfECRyxl7Dd__0p0tdH-52" value="많으면 가장 가까운 거리 보다 가깝게 다시 요청" style="rounded=1;whiteSpace=wrap;html=1;" vertex="1" parent="WIyWlLk6GJQsqaUBKTNV-1">
          <mxGeometry x="140" y="1170" width="120" height="60" as="geometry" />
        </mxCell>
        <mxCell id="GNfECRyxl7Dd__0p0tdH-59" value="완료시 db insert" style="rounded=1;whiteSpace=wrap;html=1;" vertex="1" parent="WIyWlLk6GJQsqaUBKTNV-1">
          <mxGeometry x="340" y="1290" width="120" height="60" as="geometry" />
        </mxCell>
        <mxCell id="GNfECRyxl7Dd__0p0tdH-61" value="아파트 학구도 정보" style="text;html=1;align=center;verticalAlign=middle;resizable=0;points=[];autosize=1;strokeColor=none;fillColor=none;" vertex="1" parent="WIyWlLk6GJQsqaUBKTNV-1">
          <mxGeometry x="170" y="790" width="130" height="30" as="geometry" />
        </mxCell>
      </root>
    </mxGraphModel>
  </diagram>
</mxfile>
